<svg width="432" height="128" viewBox="0 0 432 128" fill="none" xmlns="http://www.w3.org/2000/svg" role="img" aria-labelledby="title desc">
  <title id="title">WBK 2026</title>
  <desc id="desc">Logo for WBK 2026, a unified building project platform for planning, construction, and operations.</desc>
  <rect x="4" y="8" width="112" height="112" rx="26" fill="#0A0A0A"/>
  <path d="M32 35H88V91H32V35Z" stroke="#F5F5F5" stroke-width="5"/>
  <path d="M48 35V91M72 35V91M32 52H88M32 73H88" stroke="#3F3F46" stroke-width="2.5"/>
  <path d="M38 82L60 47L82 82H69L60 67L51 82H38Z" fill="#F5F5F5"/>
  <path d="M79 39C88 45.2 93 54.6 93 65C93 81.6 79.6 95 63 95C54.1 95 46.1 91.2 40.6 85.1" stroke="#F5A524" stroke-width="6" stroke-linecap="round"/>
  <path d="M79 39L78.6 53.8L90.9 45.7L79 39Z" fill="#F5A524"/>
  <circle cx="60" cy="64" r="7" fill="#F5A524"/>
  <path d="M154 43.5H166.7L174.9 76.3L184.2 43.5H195.4L204.7 76.3L212.9 43.5H225.2L211.7 91H199.5L189.7 58.6L179.8 91H167.6L154 43.5Z" fill="#0A0A0A"/>
  <path d="M231.2 43.5H253.1C263.5 43.5 269.8 48.4 269.8 56.2C269.8 61.2 267.3 64.9 262.8 67C268.3 68.8 271.6 72.9 271.6 78.5C271.6 86.3 265.2 91 254.3 91H231.2V43.5ZM252 62.7C256.1 62.7 258.4 60.9 258.4 57.7C258.4 54.6 256.1 52.8 252 52.8H242.9V62.7H252ZM253.4 81.7C257.7 81.7 260.1 79.9 260.1 76.5C260.1 73.2 257.7 71.3 253.4 71.3H242.9V81.7H253.4Z" fill="#0A0A0A"/>
  <path d="M279.9 43.5H291.7V63.4L309.9 43.5H324.2L304.6 64.4L325.4 91H311L296.7 72.4L291.7 77.7V91H279.9V43.5Z" fill="#0A0A0A"/>
  <path d="M337.7 91V82.7L354.6 67.7C359 63.8 361 61.5 361 58.4C361 54.9 358.7 52.8 354.8 52.8C350.8 52.8 347.8 55.2 345.1 59.3L337.2 53.4C341.5 46.5 347.6 42.8 355.8 42.8C365.8 42.8 372.6 48.7 372.6 57.6C372.6 64.2 369.2 68.7 362.1 74.9L354.8 81.2H373.3V91H337.7Z" fill="#0A0A0A"/>
  <path d="M381.3 67.3C381.3 52.5 389.2 42.8 401.5 42.8C413.8 42.8 421.7 52.5 421.7 67.3C421.7 82.1 413.8 91.8 401.5 91.8C389.2 91.8 381.3 82.1 381.3 67.3ZM410.1 67.3C410.1 58.3 406.8 52.9 401.5 52.9C396.2 52.9 392.9 58.3 392.9 67.3C392.9 76.3 396.2 81.7 401.5 81.7C406.8 81.7 410.1 76.3 410.1 67.3Z" fill="#0A0A0A"/>
</svg>
