<svg xmlns="http://www.w3.org/2000/svg" viewBox="0 0 800 560" role="img" aria-label="Demo-Grundriss Gruendung">
  <rect width="800" height="560" fill="#f8fafc"/>
  <rect x="40" y="40" width="720" height="480" fill="#ffffff" stroke="#cbd5e1" stroke-width="2"/>
  <g stroke="#e2e8f0" stroke-width="1">
    <line x1="120" y1="40" x2="120" y2="520"/>
    <line x1="200" y1="40" x2="200" y2="520"/>
    <line x1="280" y1="40" x2="280" y2="520"/>
    <line x1="360" y1="40" x2="360" y2="520"/>
    <line x1="440" y1="40" x2="440" y2="520"/>
    <line x1="520" y1="40" x2="520" y2="520"/>
    <line x1="600" y1="40" x2="600" y2="520"/>
    <line x1="680" y1="40" x2="680" y2="520"/>
    <line x1="40" y1="120" x2="760" y2="120"/>
    <line x1="40" y1="200" x2="760" y2="200"/>
    <line x1="40" y1="280" x2="760" y2="280"/>
    <line x1="40" y1="360" x2="760" y2="360"/>
    <line x1="40" y1="440" x2="760" y2="440"/>
  </g>
  <rect x="200" y="280" width="480" height="160" fill="#eef2ff" stroke="#6366f1" stroke-width="2" stroke-dasharray="8 4"/>
  <text x="440" y="365" text-anchor="middle" font-family="system-ui,sans-serif" font-size="18" fill="#4338ca">Bodenplatte Baufeld 3</text>
  <rect x="520" y="360" width="160" height="120" fill="#fef3c7" stroke="#d97706" stroke-width="2"/>
  <text x="600" y="420" text-anchor="middle" font-family="system-ui,sans-serif" font-size="14" fill="#92400e">Suedfeld S3-S5</text>
  <text x="60" y="28" font-family="system-ui,sans-serif" font-size="12" fill="#64748b">TWP-GRU Demo · Achsraster</text>
</svg>
